Coordinates
version=1
nRows=23
nColumns=28
inDegrees=yes

Units are S.I. units (second, meters, Newtons, ...)
Angles are in degrees.

endheader
time	pelvis_tilt	pelvis_list	pelvis_rotation	pelvis_tx	pelvis_ty	pelvis_tz	hip_flexion_r	hip_adduction_r	hip_rotation_r	knee_angle_r	ankle_angle_r	subtalar_angle_r	mtp_angle_r	hip_flexion_l	hip_adduction_l	hip_rotation_l	knee_angle_l	socket_flexion	socket_adduction	socket_rotation	socket_tx	socket_ty	socket_tz	foot_flex	lumbar_extension	lumbar_bending	lumbar_rotation
      0.00000000	     -0.81504529	      1.10379036	     -4.22122156	     -0.78487110	      0.97325789	      0.25446457	    -23.02339028	      0.58403790	      4.11881477	     -1.45325065	     -3.20415684	    -16.96860006	     19.71168693	     20.05943424	     -1.97477762	      2.65727322	      1.77673465	      0.00000000	      0.00000000	      0.00000000	      0.00000000	     -0.00085035	      0.00000000	     -1.03573649	     -7.81304802	     -1.60939158	      1.99948889
      0.00416667	     -0.79859658	      1.18311851	     -4.29222345	     -0.77937139	      0.97198741	      0.25422020	    -23.29569834	      0.45156211	      4.23062356	     -1.56804210	     -3.21366492	    -16.94460984	     19.73752852	     20.17359154	     -1.86006420	      2.73686073	      1.24651806	      0.00000000	      0.00000000	      0.00000000	      0.00000000	     -0.00144572	      0.00000000	     -1.63439589	     -7.79422087	     -1.72385504	      2.03627155
      0.00833333	     -0.77814941	      1.26459113	     -4.38573488	     -0.77355581	      0.97072675	      0.25404647	    -23.53946932	      0.31064951	      4.27818896	     -1.77016545	     -3.22973933	    -16.94645708	     19.75915444	     20.24713778	     -1.76189992	      2.85495161	      0.74623654	      0.00000000	      0.00000000	      0.00000000	      0.00000000	     -0.00201650	      0.00000000	     -2.14283020	     -7.76812416	     -1.83500449	      2.08269623
      0.01250000	     -0.74680025	      1.36257178	     -4.44986975	     -0.76758261	      0.96947017	      0.25382617	    -23.77226039	      0.16645285	      4.30361970	     -2.04129002	     -3.25016831	    -16.96051468	     19.78504111	     20.32338147	     -1.62923939	      2.96730685	      0.20837241	      0.00000000	      0.00000000	      0.00000000	      0.00000000	     -0.00258102	      0.00000000	     -2.69385077	     -7.75684554	     -1.96886232	      2.14686402
      0.01666667	     -0.64743637	      1.61144986	     -4.40483994	     -0.76128316	      0.96830278	      0.25358160	    -24.02891355	     -0.08728733	      3.93385677	     -2.45039088	     -3.22764634	    -17.03577888	     20.00800599	     20.29765231	     -1.30426839	      3.13753633	     -0.27618160	      0.00000000	      0.00000000	      0.00000000	      0.00000000	     -0.00294783	      0.00000000	     -3.30907059	     -7.78416441	     -2.34289158	      2.45002674
      0.02083333	     -0.61493427	      1.69761666	     -4.48061694	     -0.75505488	      0.96705100	      0.25331044	    -24.25565489	     -0.22961276	      3.99342144	     -2.74294341	     -3.28063304	    -17.00963965	     20.05757221	     20.39513607	     -1.17460183	      3.18492675	     -0.90699031	      0.00000000	      0.00000000	      0.00000000	      0.00000000	     -0.00358427	      0.00000000	     -3.85057853	     -7.78712552	     -2.45283568	      2.48237854
      0.02500000	     -0.58373362	      1.79538646	     -4.55866810	     -0.74866256	      0.96582588	      0.25307038	    -24.46489738	     -0.38494940	      4.01160552	     -3.07267241	     -3.33847570	    -17.00412176	     20.09885476	     20.48182268	     -1.03864201	      3.24886070	     -1.54722937	      0.00000000	      0.00000000	      0.00000000	      0.00000000	     -0.00427309	      0.00000000	     -4.38575343	     -7.77583995	     -2.58506188	      2.52213456
      0.02916667	     -0.54396444	      1.93644025	     -4.57343594	     -0.74227508	      0.96469695	      0.25273862	    -24.62915196	     -0.54957336	      3.98881098	     -3.51228533	     -3.42589206	    -17.01198992	     20.15511213	     20.57798278	     -0.82985973	      3.30857998	     -2.21341004	      0.00000000	      0.00000000	      0.00000000	      0.00000000	     -0.00481629	      0.00000000	     -4.97783803	     -7.79020147	     -2.77898698	      2.58509945
      0.03333333	     -0.51913471	      2.17632803	     -4.56856635	     -0.73568624	      0.96360105	      0.25248373	    -24.68464243	     -0.81129843	      3.66204607	     -4.13039161	     -3.54677243	    -17.06874067	     20.30702344	     20.65753062	     -0.52365624	      3.40432696	     -2.83897042	      0.00000000	      0.00000000	      0.00000000	      0.00000000	     -0.00525043	      0.00000000	     -5.54509813	     -7.75415141	     -3.12134594	      2.72101816
      0.03750000	     -0.06070949	      2.62382288	     -5.04711952	     -0.72808528	      0.96309705	      0.25368073	    -25.22823518	     -1.49800204	      3.24153044	     -4.66313721	     -3.55372335	    -16.30113298	     22.32115229	     20.04275036	     -0.18285507	      2.95838248	     -3.28610320	      0.00000000	      0.00000000	      0.00000000	      0.00000000	     -0.00605494	      0.00000000	     -5.97105225	     -8.04827273	     -3.89243241	      3.54111247
      0.04166667	     -0.03804713	      2.74548836	     -5.01079071	     -0.72171076	      0.96219094	      0.25323119	    -25.34920173	     -1.62548000	      3.28727003	     -5.10717079	     -3.68601172	    -16.30960686	     22.36561301	     20.18445621	      0.03219355	      2.94620996	     -4.05726809	      0.00000000	      0.00000000	      0.00000000	      0.00000000	     -0.00652893	      0.00000000	     -6.45007838	     -8.07165118	     -4.05227797	      3.50920889
      0.04583333	     -0.02123981	      2.91741190	     -4.95303639	     -0.71530961	      0.96135447	      0.25278571	    -25.39192221	     -1.79145537	      3.23892878	     -5.68064590	     -3.88680608	    -16.34528012	     22.41201815	     20.33642902	      0.29863060	      2.95724339	     -4.84518045	      0.00000000	      0.00000000	      0.00000000	      0.00000000	     -0.00692689	      0.00000000	     -6.89746461	     -8.08909411	     -4.28205608	      3.48000417
      0.05000000	     -0.57969396	      3.17579721	     -4.58304494	     -0.70869665	      0.95969703	      0.25190675	    -24.53317648	     -1.95309930	      2.10255289	     -6.81239083	     -4.14326758	    -16.00539957	     24.68889396	     21.22386349	      0.71311431	      3.26233925	     -5.81756226	      0.00000000	      0.00000000	      0.00000000	      0.00000000	     -0.00702018	      0.00000000	     -7.18367664	     -7.39240472	     -4.53274122	      3.02379532
      0.05416667	     -0.51613977	      3.33473047	     -4.53166340	     -0.70219414	      0.95910128	      0.25139090	    -24.63498868	     -2.11707213	      2.18435850	     -7.34768649	     -4.37561272	    -15.99100910	     24.71580197	     21.29948473	      0.97413870	      3.22374647	     -6.61629299	      0.00000000	      0.00000000	      0.00000000	      0.00000000	     -0.00747206	      0.00000000	     -7.53641610	     -7.46741690	     -4.74746188	      3.04284503
      0.05833333	     -0.45818175	      3.53945738	     -4.46979810	     -0.69572790	      0.95861750	      0.25093871	    -24.63625738	     -2.32130402	      2.14506014	     -8.03197962	     -4.70848331	    -16.00109514	     24.74004035	     21.38498217	      1.27882288	      3.17945929	     -7.42933127	      0.00000000	      0.00000000	      0.00000000	      0.00000000	     -0.00775633	      0.00000000	     -7.80095256	     -7.53677315	     -5.02012694	      3.05320676
      0.06250000	     -0.61250520	      3.96666570	     -4.32013259	     -0.68886286	      0.95788066	      0.25040836	    -24.21551540	     -2.77526620	      1.31036406	     -9.09332666	     -5.40447592	    -16.04656149	     25.09587461	     21.66259282	      1.81847364	      3.11183367	     -8.20605860	      0.00000000	      0.00000000	      0.00000000	      0.00000000	     -0.00769888	      0.00000000	     -7.89826865	     -7.27107693	     -5.57041689	      3.04974959
      0.06666667	     -0.55212854	      4.11002141	     -4.20411931	     -0.68234912	      0.95757281	      0.24971072	    -24.25209948	     -2.90095872	      1.46369448	     -9.70243555	     -5.68072099	    -15.97751273	     25.15471736	     21.74102462	      2.09055073	      3.07505675	     -9.05403281	      0.00000000	      0.00000000	      0.00000000	      0.00000000	     -0.00807808	      0.00000000	     -8.10808524	     -7.35240204	     -5.75605281	      3.03304482
      0.07083333	     -0.96927347	      4.43886448	     -3.97811102	     -0.67573908	      0.95656454	      0.24888084	    -23.27551390	     -3.31808945	      0.23985687	    -11.19948734	     -6.19168716	    -15.06649361	     28.30427872	     22.40273053	      2.54383970	      3.08707358	    -10.02583704	      0.00000000	      0.00000000	      0.00000000	      0.00000000	     -0.00800090	      0.00000000	     -8.00677305	     -6.83994632	     -6.12046495	      2.77977468
      0.07500000	     -0.87166230	      4.62403025	     -3.86106961	     -0.66922613	      0.95653198	      0.24822026	    -23.25864992	     -3.49406041	      0.37739169	    -11.94266975	     -6.61328281	    -15.01880035	     28.31663391	     22.41798639	      2.85482994	      3.07364280	    -10.85993711	      0.00000000	      0.00000000	      0.00000000	      0.00000000	     -0.00817753	      0.00000000	     -8.06123694	     -6.95885835	     -6.36372867	      2.76780054
      0.07916667	     -0.89180010	      4.96310948	     -3.76382384	     -0.66253179	      0.95636236	      0.24761380	    -22.83854983	     -3.92713955	     -0.21297486	    -13.16429199	     -7.60608414	    -15.00077950	     28.43805019	     22.51986988	      3.29578544	      2.89227934	    -11.65074880	      0.00000000	      0.00000000	      0.00000000	      0.00000000	     -0.00808181	      0.00000000	     -7.86538651	     -6.88710590	     -6.79711519	      2.71559805
      0.08333333	     -0.80726786	      5.16373057	     -3.62188499	     -0.65608481	      0.95646998	      0.24686977	    -22.70045319	     -4.12511893	     -0.10418770	    -14.05572230	     -8.14116469	    -14.89841308	     28.48577665	     22.56224338	      3.62684172	      2.88937669	    -12.52654111	      0.00000000	      0.00000000	      0.00000000	      0.00000000	     -0.00812198	      0.00000000	     -7.78231393	     -7.01736944	     -7.05643459	      2.68004066
      0.08750000	     -1.21313713	      5.54228851	     -3.39331410	     -0.64932304	      0.95580432	      0.24589760	    -21.67215177	     -4.68540231	     -1.25657530	    -15.60783860	     -8.98965622	    -13.97626487	     31.22591903	     23.12929503	      4.13027705	      2.74977812	    -13.43197677	      0.00000000	      0.00000000	      0.00000000	      0.00000000	     -0.00781918	      0.00000000	     -7.44282205	     -6.48061161	     -7.46444789	      2.51134058
      0.09166667	     -1.20929320	      5.82257155	     -3.27799426	     -0.64273087	      0.95592042	      0.24514495	    -21.23971957	     -5.06253461	     -1.50320308	    -16.82471756	    -10.00488821	    -13.88372984	     31.26373918	     23.18889401	      4.52272442	      2.62349314	    -14.22347590	      0.00000000	      0.00000000	      0.00000000	      0.00000000	     -0.00770531	      0.00000000	     -7.19489894	     -6.47552250	     -7.78807501	      2.42232377
